<svg width="48" height="48" xmlns="http://www.w3.org/2000/svg">
  <g fill="#bababa" fill-rule="evenodd" color="#000">
    <path d="M2.613 1.236a1.25 1.25 0 0 0-1.011 2.03L5.205 7.93A2.993 2.993 0 0 0 5.002 9v7c0 1.662 1.338 3 3 3h32c1.662 0 3-1.338 3-3V9c0-.38-.077-.74-.205-1.074l3.602-4.66a1.25 1.25 0 0 0-1.05-2.028 1.25 1.25 0 0 0-.929.498l-3.432 4.442A2.987 2.987 0 0 0 40.002 6h-32c-.348 0-.677.07-.988.178L3.58 1.736a1.25 1.25 0 0 0-.967-.5zM14.375 9.75a3.375 3.375 0 0 1 3.375 3.375 3.375 3.375 0 0 1-3.375 3.375A3.375 3.375 0 0 1 11 13.125a3.375 3.375 0 0 1 3.375-3.375zm19.5 0a3.375 3.375 0 0 1 3.375 3.375 3.375 3.375 0 0 1-3.375 3.375 3.375 3.375 0 0 1-3.375-3.375 3.375 3.375 0 0 1 3.375-3.375z" style="block-progression:tb;isolation:auto;mix-blend-mode:normal;text-decoration-color:#000;text-decoration-line:none;text-decoration-style:solid;text-indent:0;text-transform:none;white-space:normal"/>
    <path d="M8.002 1024.4c-.208 0-.41.02-.605.06a2.971 2.971 0 0 0-2.395 2.91v20.027c0 1.662 1.338 3 3 3h32c1.662 0 3-1.338 3-3v-20.027a2.971 2.971 0 0 0-2.394-2.91 3.092 3.092 0 0 0-.606-.06h-32z" style="block-progression:tb;isolation:auto;mix-blend-mode:normal;text-decoration-color:#000;text-decoration-line:none;text-decoration-style:solid;text-indent:0;text-transform:none;white-space:normal" transform="translate(0 -1004.4)"/>
  </g>
</svg>
