<svg xmlns="http://www.w3.org/2000/svg" width="16" height="16"><path style="stroke:none;fill-rule:nonzero;fill:#29abe0;fill-opacity:1" d="M16 8A8 8 0 1 1 0 8a8 8 0 0 1 16 0Zm0 0"/><path style="stroke:none;fill-rule:nonzero;fill:#fff;fill-opacity:1" d="M10.938 4.324h.789a2.76 2.76 0 0 1 2.761 2.758v.164a2.76 2.76 0 0 1-2.761 2.758h-.79v.832c0 .703-.57 1.273-1.273 1.273H3.652c-.703 0-1.273-.57-1.273-1.273V4.96c0-.352.285-.637.637-.637Zm0 1.473V8.53h.718a1.369 1.369 0 1 0 0-2.734Zm0 0"/><path style="stroke:none;fill-rule:nonzero;fill:#ff5e5b;fill-opacity:1" d="M6.488 6.918c.196-.574.66-.863 1.399-.863 1.101 0 1.511 1.37.933 2.27-.386.597-1.164 1.355-2.332 2.269-1.172-.914-1.949-1.672-2.336-2.27-.578-.898-.168-2.27.938-2.27.734 0 1.2.29 1.398.864Zm0 0"/></svg>